<svg height="42" width="42" viewBox="0 0 37 44" fill="none" xmlns="http://www.w3.org/2000/svg">
  <path
    d="M16.5163 11.9322L9.99739 10.7014C8.2764 10.3729 7.45763 9.7575 7.45763 8.40678C7.45763 6.5189 9.1369 5.53846 11.7601 5.53846C14.3833 5.53846 15.9844 7.09778 16.3494 9.22555H23.1134C22.8266 3.48892 18.4824 0 11.8018 0C5.12125 0 0.615385 3.77053 0.615385 8.93872C0.615385 13.6949 3.28031 16.0313 8.0365 16.97L14.0235 18.1591C16.1565 18.5711 17.1004 19.5098 17.1004 20.9857C17.1004 23.0352 15.2542 24.3077 12.3859 24.3077C9.18905 24.3077 7.38461 22.5867 6.85267 20.0834H0C0.615385 26.0287 5.24641 29.8409 12.2973 29.8409C19.3481 29.8409 23.9374 25.867 23.9374 20.0834C23.9374 15.5724 21.3559 12.8292 16.5163 11.927V11.9322Z"
    fill="#c89b3c"
  />
  <path
    d="M36.0711 11.9961H11.4766L15.2732 18.103H20.2484V44.0013L27.2992 40.6897V18.103H32.2745L36.0711 11.9961Z"
    fill="#c89b3c"
  />
</svg>
