<svg xmlns="http://www.w3.org/2000/svg" width="636" height="735" viewBox="180 144 636 735" version="1.1">
	<path d="M 395.869 165.020 C 346.547 168.608, 303.724 185.965, 276.484 213.409 C 246.871 243.244, 233.402 282.037, 237.916 324.500 C 240.912 352.685, 250.358 373.060, 269.096 391.753 C 279.426 402.058, 288.817 408.591, 303.247 415.513 C 324.761 425.834, 335.692 428.728, 391.923 438.990 C 451.020 449.776, 463.831 452.905, 475 459.281 C 490.932 468.377, 498.305 483.842, 495.932 503.182 C 493.559 522.519, 479.494 536.938, 454.084 546.081 L 447.668 548.389 452.084 549.839 C 455.651 551.011, 459.891 554.673, 474.145 568.895 C 484.534 579.261, 492.655 588.231, 493.895 590.710 C 495.326 593.573, 496 596.821, 496 600.860 C 496 607.132, 495.832 607.474, 486.001 621.254 C 480.792 628.556, 482.457 629.108, 496.300 624.670 C 508.806 620.662, 527.605 611.746, 538.500 604.657 L 545.500 600.102 546.051 729.019 C 546.355 799.924, 546.915 858.248, 547.296 858.629 C 548.168 859.502, 554.011 856.870, 610.500 830.158 L 656.500 808.406 657.104 662.453 C 657.436 582.179, 657.773 501.318, 657.854 482.762 L 658 449.023 697.187 448.762 L 736.375 448.500 749.328 428 C 756.452 416.725, 769.854 395.462, 779.109 380.750 L 795.938 354 685.719 353.876 C 625.098 353.807, 554.575 353.450, 529 353.082 L 482.500 352.412 435.844 343.203 C 379.496 332.081, 367.545 329.169, 360.228 324.781 C 349.204 318.169, 344.345 307.983, 345.255 293.396 C 346.732 269.715, 365.307 255.928, 401.030 251.997 C 441.688 247.523, 471.495 265.599, 483.072 301.750 L 485.394 309 538.335 309 L 591.276 309 590.581 301.335 C 587.597 268.402, 574.861 239.040, 553.794 216.524 C 528.126 189.089, 492.518 172.454, 446.960 166.615 C 431.667 164.655, 410.135 163.983, 395.869 165.020 M 228.460 487.741 C 229.692 497.991, 234.119 516.262, 237.729 526 C 240.475 533.405, 249.112 552.230, 250.470 553.771 C 250.602 553.921, 253.137 552.912, 256.105 551.531 C 259.072 550.150, 262.850 549.013, 264.500 549.005 C 269.547 548.980, 276.468 552.066, 284.882 558.093 L 292.910 563.844 300.205 560.813 C 304.217 559.146, 307.894 557.415, 308.376 556.966 C 308.857 556.516, 309.866 551.728, 310.616 546.324 C 312.242 534.620, 314.765 529.128, 320.269 525.313 C 324.141 522.628, 324.974 522.477, 338.570 522 L 352.814 521.500 347.937 514.099 C 342.920 506.486, 339.100 497.644, 336.662 488 L 335.272 482.500 281.520 482.241 L 227.767 481.983 228.460 487.741 M 331.350 535.968 C 328.334 537.221, 327.268 541.624, 326.512 555.950 C 326.151 562.798, 325.445 569.168, 324.943 570.107 C 324.440 571.046, 320.760 573.050, 316.765 574.561 C 312.769 576.072, 305.859 578.977, 301.410 581.016 L 293.319 584.723 280.933 574.324 C 274.121 568.604, 267.543 563.672, 266.315 563.364 C 264.920 563.014, 262.987 563.585, 261.158 564.888 C 256.954 567.881, 229.930 596.059, 228.724 598.707 C 227.540 601.305, 228.516 602.758, 242.168 618.715 L 250.907 628.929 246.513 638.215 C 244.097 643.322, 241.337 650.052, 240.379 653.170 L 238.638 658.841 229.069 659.469 C 211.422 660.627, 203.824 661.748, 202.126 663.444 C 200.734 664.834, 200.455 668.515, 200.185 688.968 L 199.870 712.869 202.341 714.488 C 204.122 715.655, 209.097 716.397, 220.156 717.144 C 228.595 717.715, 236.113 718.488, 236.862 718.863 C 237.611 719.237, 239.469 722.909, 240.991 727.022 C 242.513 731.135, 245.163 737.425, 246.879 741 C 248.595 744.575, 249.999 748.071, 249.999 748.770 C 250 749.468, 245.679 755.093, 240.399 761.270 C 228.626 775.040, 227.307 777.307, 229.317 780.326 C 232.269 784.762, 261.583 813.780, 263.799 814.460 C 266.651 815.336, 267.800 814.595, 281.465 803.076 C 287.386 798.084, 293.016 794, 293.975 794 C 294.934 794, 299.044 795.523, 303.109 797.384 C 307.174 799.245, 313.425 801.793, 317 803.046 C 320.575 804.299, 323.831 805.605, 324.236 805.948 C 324.641 806.292, 325.619 813.962, 326.409 822.993 C 327.587 836.464, 328.162 839.646, 329.613 840.707 C 332.858 843.079, 380.348 842.903, 382.857 840.509 C 383.938 839.478, 386.693 817.283, 386.969 807.380 C 386.986 806.763, 390.478 805.025, 394.729 803.515 C 398.980 802.006, 406.217 799.035, 410.811 796.912 L 419.164 793.053 431.485 803.428 C 438.261 809.135, 444.759 814.106, 445.925 814.476 C 447.514 814.981, 449.228 814.157, 452.772 811.187 C 460.316 804.866, 482.705 781.503, 483.441 779.187 C 484.338 776.360, 483.178 774.425, 474.140 763.666 C 469.906 758.625, 465.476 753.245, 464.295 751.710 L 462.150 748.920 466.470 739.176 C 468.846 733.817, 471.360 727.530, 472.057 725.204 C 472.754 722.879, 473.971 720.439, 474.763 719.782 C 475.580 719.104, 483.153 718.043, 492.281 717.328 C 504.274 716.389, 508.759 715.670, 509.930 714.500 C 511.254 713.178, 511.547 709.090, 511.800 688.436 L 512.100 663.940 508.800 662.566 C 506.985 661.811, 498.750 660.672, 490.500 660.035 C 482.250 659.398, 475.214 658.567, 474.864 658.188 C 474.514 657.810, 472.542 653.225, 470.483 648 C 468.423 642.775, 465.646 636.327, 464.312 633.671 C 461.547 628.166, 461.048 629.378, 470.559 618.500 C 479.751 607.987, 484 602.076, 484 599.804 C 484 598.514, 478.388 592.068, 468.750 582.288 C 451.353 564.636, 448.839 562.573, 445.689 563.363 C 444.465 563.671, 438.078 568.440, 431.497 573.961 C 424.915 579.482, 418.718 584, 417.726 584 C 416.733 584, 414.026 583.014, 411.710 581.810 C 409.395 580.605, 403 577.777, 397.500 575.525 C 385.858 570.757, 386.783 572.624, 385.182 550.673 C 384.656 543.461, 383.733 537.333, 383.075 536.673 C 381.643 535.238, 334.649 534.598, 331.350 535.968 M 341.500 621.482 C 315.583 627.197, 296.109 645.587, 289.068 670.996 C 286.556 680.062, 286.308 695.438, 288.522 704.832 C 291.970 719.459, 301.249 734.093, 312.660 742.902 C 335.412 760.466, 364.193 762.788, 390.500 749.182 C 400.849 743.830, 412.343 731.928, 417.762 720.953 C 423.861 708.602, 425.475 701.637, 425.399 688 C 425.344 678.195, 424.932 675.321, 422.601 668.500 C 418.343 656.037, 413.591 648.388, 404.489 639.347 C 391.120 626.065, 375.907 619.963, 356.500 620.097 C 351.550 620.131, 344.800 620.754, 341.500 621.482" stroke="none" fill="#c89b3c" fill-rule="evenodd"/>
</svg>